<?xml version="1.0" standalone="no"?>
<!DOCTYPE svg PUBLIC "-//W3C//DTD SVG 20010904//EN"
 "http://www.w3.org/TR/2001/REC-SVG-20010904/DTD/svg10.dtd">
<svg version="1.0" xmlns="http://www.w3.org/2000/svg"
 width="1310.000000pt" height="1310.000000pt" viewBox="0 0 1310.000000 1310.000000"
 preserveAspectRatio="xMidYMid meet">
<metadata>
Created by potrace 1.11, written by Peter Selinger 2001-2013
</metadata>
<g transform="translate(0.000000,1310.000000) scale(0.100000,-0.100000)"
fill="#000000" stroke="none">
<path d="M3432 8006 c-50 -189 -96 -355 -101 -369 -6 -15 -34 -38 -75 -61 -97
-54 -128 -83 -116 -107 14 -25 25 -24 69 9 20 15 50 35 68 45 l32 17 -21 -72
c-19 -71 -37 -98 -66 -98 -42 0 -170 -77 -134 -81 67 -7 76 -25 73 -142 -2
-71 -15 -130 -76 -352 -26 -93 -48 -177 -50 -185 -2 -8 -11 -42 -20 -75 -9
-33 -30 -110 -46 -172 -16 -61 -33 -123 -39 -137 -5 -14 -8 -26 -5 -26 2 0 -2
-18 -10 -40 -8 -22 -17 -73 -21 -112 -5 -62 -60 -281 -199 -793 -90 -332 -135
-501 -135 -508 0 -4 410 -6 912 -5 l912 3 16 65 c10 36 63 235 119 444 56 208
108 402 115 430 8 28 67 247 131 486 64 239 125 467 135 505 14 55 234 875
415 1547 13 47 26 96 30 107 l6 21 -913 0 -914 0 -92 -344z"/>
<path d="M5885 8338 c-2 -7 -11 -42 -20 -78 -9 -36 -29 -112 -45 -170 -16 -58
-49 -181 -74 -274 -25 -93 -47 -170 -48 -170 -64 -23 -258 -142 -258 -157 0
-5 5 -18 11 -28 11 -17 15 -16 68 19 60 40 135 80 149 80 9 0 -26 -145 -40
-165 -3 -6 -21 -12 -40 -13 -43 -3 -91 -19 -151 -49 -45 -23 -58 -47 -26 -49
33 -2 37 -5 49 -34 19 -47 6 -187 -29 -315 -17 -60 -41 -146 -52 -190 -12 -44
-27 -100 -34 -125 -13 -46 -74 -272 -81 -300 -2 -8 -17 -67 -34 -130 -40 -150
-48 -233 -27 -295 l16 -47 -54 -201 c-29 -111 -95 -355 -145 -542 -50 -187
-92 -346 -95 -352 -3 -10 184 -13 914 -13 l918 0 32 123 c30 114 62 233 131
487 16 58 45 168 66 245 20 77 38 142 40 144 1 2 32 3 68 3 36 0 86 5 112 10
56 12 147 64 188 107 l29 31 24 -35 c13 -19 45 -47 72 -63 l48 -27 -108 -405
c-60 -223 -122 -453 -138 -512 l-29 -108 918 0 917 0 32 122 c18 68 45 170 61
228 16 58 47 175 70 260 23 85 59 220 80 300 21 80 44 165 50 189 l11 43 24
-32 c34 -46 85 -78 152 -95 56 -15 193 -21 243 -10 14 2 39 8 55 11 77 17 158
75 215 156 18 27 35 46 37 44 3 -2 7 -19 10 -37 14 -91 79 -150 183 -167 49
-8 229 -7 262 1 32 8 32 18 -2 91 -29 63 -27 77 55 380 95 348 125 422 200
484 67 55 127 48 165 -20 29 -52 28 -108 -5 -218 -14 -47 -44 -152 -65 -234
-34 -131 -39 -160 -36 -240 4 -110 25 -157 94 -205 60 -42 145 -61 257 -57 55
2 114 7 130 10 117 26 241 144 290 279 11 28 11 28 29 -25 53 -152 157 -243
292 -254 101 -9 189 17 291 88 24 16 43 25 43 21 -1 -16 -69 -269 -84 -313
-23 -62 -80 -161 -118 -205 -59 -66 -138 -93 -173 -58 -14 14 -16 28 -11 77 3
34 13 85 20 114 l15 53 -52 33 c-97 61 -164 75 -239 50 -58 -19 -123 -85 -115
-118 3 -11 8 -32 11 -44 9 -40 58 -115 102 -157 105 -101 284 -141 494 -110
68 10 204 59 264 95 60 37 149 117 187 170 27 36 89 161 89 177 0 5 8 36 19
69 10 32 31 106 46 164 15 58 35 134 45 170 10 36 49 178 85 315 84 315 99
361 135 407 l29 36 -22 14 c-46 29 -154 70 -218 82 -71 14 -134 5 -178 -26
-22 -15 -26 -15 -67 2 -156 67 -395 58 -555 -21 -211 -105 -347 -344 -363
-640 -8 -133 -157 -294 -248 -268 -103 29 -105 56 -34 323 31 116 62 224 68
239 6 15 11 63 11 105 0 153 -81 258 -230 297 -106 28 -202 17 -310 -36 -69
-33 -161 -117 -188 -170 l-18 -33 -21 66 c-39 118 -112 177 -231 183 -77 4
-130 -7 -203 -43 -65 -32 -74 -47 -32 -55 21 -5 34 -15 41 -34 18 -45 3 -195
-31 -318 -17 -60 -42 -150 -55 -200 -38 -142 -104 -246 -189 -299 -54 -34
-137 -15 -165 38 -18 34 -13 61 64 332 56 196 79 295 78 339 -2 136 -96 212
-267 214 -43 1 -42 -5 -9 109 l15 54 21 -20 c38 -33 97 -54 156 -54 218 -2
326 262 168 413 -53 51 -85 63 -164 64 -40 0 -73 1 -73 3 0 2 54 205 120 451
66 246 120 451 120 455 0 3 -413 5 -917 4 l-917 -3 -13 -55 c-8 -30 -29 -111
-48 -180 -19 -69 -55 -204 -80 -300 -26 -96 -57 -213 -70 -260 -13 -47 -47
-173 -75 -280 -28 -107 -62 -233 -75 -280 -13 -47 -29 -105 -35 -128 -11 -41
-13 -43 -38 -37 -15 4 -58 9 -96 11 -39 2 -97 13 -130 23 -65 20 -109 28 -195
36 -30 3 -57 7 -59 10 -3 2 82 325 187 718 105 393 191 717 191 721 0 3 -412
6 -915 6 -724 0 -917 -3 -920 -12z m1676 -1560 c17 -27 -7 -141 -91 -423 -21
-71 -46 -170 -55 -220 -9 -49 -19 -101 -21 -113 -7 -33 -62 -81 -101 -88 -52
-10 -114 26 -141 81 -12 25 -22 62 -22 81 0 66 108 454 143 513 78 130 249
231 288 169z m5032 -46 c-11 -26 -80 -271 -108 -382 -6 -24 -61 -229 -81 -302
-20 -74 -31 -83 -94 -79 -38 2 -74 22 -102 55 -39 45 -61 183 -43 266 3 14 8
38 10 54 3 16 19 63 35 105 80 206 213 324 361 319 l36 -2 -14 -34z"/>
<path d="M730 7710 c-19 -5 -48 -10 -65 -13 -87 -13 -297 -113 -395 -187 -22
-17 -23 -21 -11 -43 l14 -25 47 33 c63 44 154 90 210 105 77 21 191 16 252
-12 228 -105 296 -474 128 -687 -65 -82 -141 -127 -248 -147 -19 -4 -22 -1
-18 13 92 300 89 466 -11 567 -88 89 -239 96 -386 18 -45 -24 -57 -46 -26 -48
8 0 19 -2 25 -2 41 -6 43 -173 4 -312 -44 -153 -202 -748 -225 -844 -64 -267
12 -376 264 -381 192 -3 211 7 164 91 -37 67 -36 75 81 509 19 72 44 166 56
210 12 44 23 85 25 92 6 18 44 3 79 -32 58 -58 79 -117 80 -225 1 -83 -7 -182
-20 -245 -11 -52 -11 -155 0 -206 21 -102 100 -178 216 -209 145 -40 423 11
494 91 32 35 32 43 3 62 -21 14 -25 12 -65 -28 -77 -78 -140 -76 -183 7 -24
45 -26 85 -18 373 4 153 -23 252 -87 319 -40 42 -111 84 -174 103 -74 23 -79
29 -27 36 99 14 264 85 352 152 112 86 174 199 180 327 8 154 -60 299 -190
408 -53 44 -167 103 -225 116 -19 4 -42 9 -50 11 -32 9 -217 10 -250 3z"/>
<path d="M2498 7685 c-2 -2 -37 -5 -78 -8 -195 -14 -363 -113 -550 -327 -125
-142 -283 -482 -316 -680 -3 -14 -6 -30 -9 -37 -26 -74 -27 -396 -2 -501 47
-199 170 -337 337 -377 29 -7 138 -19 185 -19 144 -3 258 24 360 86 135 81
210 185 274 379 29 90 32 102 35 194 10 234 -131 356 -349 305 -56 -13 -175
-68 -175 -81 0 -5 15 -15 34 -23 25 -10 37 -24 46 -51 20 -61 14 -221 -12
-320 -5 -22 -10 -42 -10 -45 0 -3 -14 -43 -30 -90 -77 -218 -153 -295 -238
-238 -75 51 -100 184 -77 412 43 412 313 1141 477 1290 69 62 110 44 111 -51
1 -49 -10 -165 -17 -172 -6 -6 38 -37 95 -66 64 -32 143 -42 196 -25 44 14
115 82 115 109 0 36 -35 118 -71 168 -50 67 -116 115 -199 141 -39 13 -128 31
-132 27z"/>
</g>
</svg>
